<svg width="500" height="233" viewBox="0 0 500 233" fill="none" xmlns="http://www.w3.org/2000/svg">
<path fill-rule="evenodd" clip-rule="evenodd" d="M232.164 0H0V232.164H232.164V0ZM191.349 50.9716H129.895L123.356 36.0254L98.3698 41.0227L103.052 50.9716H60.0716V108.514H169.303V72.7452H96.2046V86.6543H149.578V94.1071H79.9605V65.1298H191.349V50.9716ZM63.9303 194.258H44.0305V114.659H185.319V171.374C185.65 177.675 183.13 190.676 170.394 192.268H138.554L138.541 192.213H131.564V138.905H149.5V175.354H158.454C160.444 175.354 164.424 173.961 164.424 168.389V130.579H63.9303V194.258Z" fill="#333333"/>
<path d="M271.674 156.302C267.395 156.302 263.616 155.444 260.337 153.729C257.058 152.014 254.501 149.635 252.668 146.591C250.889 143.493 250 139.924 250 135.884V117.293C250 113.253 250.889 109.684 252.668 106.586C254.501 103.487 257.058 101.108 260.337 99.448C263.616 97.7327 267.395 96.875 271.674 96.875C275.897 96.875 279.621 97.705 282.844 99.365C286.123 101.025 288.651 103.294 290.43 106.171C292.264 108.993 293.181 112.147 293.181 115.633V116.214C293.181 116.49 293.07 116.739 292.847 116.961C292.681 117.127 292.458 117.21 292.18 117.21H282.427C282.149 117.21 281.899 117.127 281.677 116.961C281.51 116.739 281.427 116.49 281.427 116.214V115.965C281.427 113.419 280.538 111.289 278.759 109.574C276.981 107.803 274.619 106.918 271.674 106.918C268.673 106.918 266.255 107.859 264.421 109.74C262.643 111.566 261.754 113.973 261.754 116.961V136.216C261.754 139.204 262.726 141.639 264.671 143.52C266.617 145.346 269.09 146.259 272.091 146.259C274.98 146.259 277.287 145.512 279.009 144.018C280.732 142.469 281.594 140.339 281.594 137.627V133.892C281.594 133.616 281.455 133.477 281.177 133.477H271.84C271.563 133.477 271.312 133.394 271.09 133.228C270.923 133.007 270.84 132.758 270.84 132.481V124.846C270.84 124.569 270.923 124.348 271.09 124.182C271.312 123.96 271.563 123.85 271.84 123.85H292.18C292.458 123.85 292.681 123.96 292.847 124.182C293.07 124.348 293.181 124.569 293.181 124.846V135.801C293.181 140.007 292.292 143.659 290.513 146.757C288.735 149.856 286.206 152.235 282.927 153.895C279.704 155.5 275.953 156.302 271.674 156.302Z" fill="#333333"/>
<path d="M334.219 155.638C333.664 155.638 333.275 155.389 333.052 154.891L322.632 131.9C322.521 131.679 322.355 131.568 322.132 131.568H314.38C314.102 131.568 313.963 131.707 313.963 131.983V154.642C313.963 154.919 313.852 155.168 313.629 155.389C313.463 155.555 313.24 155.638 312.963 155.638H303.209C302.932 155.638 302.681 155.555 302.459 155.389C302.292 155.168 302.209 154.919 302.209 154.642V98.535C302.209 98.2583 302.292 98.037 302.459 97.871C302.681 97.6497 302.932 97.539 303.209 97.539H327.05C330.607 97.539 333.719 98.2583 336.387 99.697C339.11 101.136 341.194 103.183 342.639 105.839C344.139 108.495 344.89 111.566 344.89 115.052C344.89 118.814 343.945 122.051 342.055 124.763C340.166 127.419 337.526 129.3 334.136 130.406C333.858 130.517 333.775 130.711 333.886 130.987L345.223 154.476C345.334 154.697 345.39 154.863 345.39 154.974C345.39 155.417 345.084 155.638 344.473 155.638H334.219ZM314.38 107.582C314.102 107.582 313.963 107.72 313.963 107.997V122.19C313.963 122.466 314.102 122.605 314.38 122.605H325.3C327.634 122.605 329.524 121.913 330.968 120.53C332.469 119.146 333.219 117.348 333.219 115.135C333.219 112.921 332.469 111.123 330.968 109.74C329.524 108.301 327.634 107.582 325.3 107.582H314.38Z" fill="#333333"/>
<path d="M391.73 155.638C391.175 155.638 390.813 155.361 390.647 154.808L388.146 146.674C388.035 146.453 387.896 146.342 387.729 146.342H367.222C367.056 146.342 366.917 146.453 366.806 146.674L364.388 154.808C364.221 155.361 363.86 155.638 363.304 155.638H352.718C352.384 155.638 352.134 155.555 351.967 155.389C351.801 155.168 351.773 154.863 351.884 154.476L369.89 98.369C370.057 97.8156 370.418 97.539 370.974 97.539H384.061C384.617 97.539 384.978 97.8156 385.145 98.369L403.151 154.476C403.206 154.587 403.234 154.725 403.234 154.891C403.234 155.389 402.929 155.638 402.317 155.638H391.73ZM369.807 136.797C369.751 137.129 369.862 137.295 370.14 137.295H384.811C385.145 137.295 385.256 137.129 385.145 136.797L377.642 112.147C377.587 111.925 377.504 111.842 377.392 111.898C377.281 111.898 377.198 111.981 377.142 112.147L369.807 136.797Z" fill="#333333"/>
<path d="M429.277 156.302C424.942 156.302 421.136 155.472 417.857 153.812C414.578 152.097 412.049 149.718 410.271 146.674C408.493 143.631 407.603 140.117 407.603 136.133V116.961C407.603 112.977 408.493 109.463 410.271 106.42C412.049 103.377 414.578 101.025 417.857 99.365C421.136 97.705 424.942 96.875 429.277 96.875C433.556 96.875 437.308 97.6773 440.531 99.282C443.81 100.831 446.338 103.072 448.117 106.005C449.951 108.882 450.867 112.23 450.867 116.048C450.867 116.546 450.534 116.85 449.867 116.961L440.114 117.542H439.947C439.392 117.542 439.114 117.237 439.114 116.629C439.114 113.696 438.197 111.344 436.363 109.574C434.584 107.803 432.223 106.918 429.277 106.918C426.276 106.918 423.859 107.803 422.025 109.574C420.246 111.344 419.357 113.696 419.357 116.629V136.631C419.357 139.509 420.246 141.833 422.025 143.603C423.859 145.374 426.276 146.259 429.277 146.259C432.223 146.259 434.584 145.374 436.363 143.603C438.197 141.833 439.114 139.509 439.114 136.631C439.114 136.023 439.447 135.718 440.114 135.718L449.867 136.133C450.145 136.133 450.367 136.216 450.534 136.382C450.756 136.548 450.867 136.742 450.867 136.963C450.867 140.781 449.951 144.157 448.117 147.089C446.338 150.022 443.81 152.291 440.531 153.895C437.308 155.5 433.556 156.302 429.277 156.302Z" fill="#333333"/>
<path d="M500 106.586C500 106.863 499.889 107.112 499.667 107.333C499.5 107.499 499.278 107.582 499 107.582H471.657C471.38 107.582 471.241 107.72 471.241 107.997V120.862C471.241 121.138 471.38 121.277 471.657 121.277H489.58C489.858 121.277 490.08 121.387 490.247 121.609C490.469 121.775 490.58 121.996 490.58 122.273V130.323C490.58 130.6 490.469 130.849 490.247 131.07C490.08 131.236 489.858 131.319 489.58 131.319H471.657C471.38 131.319 471.241 131.458 471.241 131.734V145.18C471.241 145.457 471.38 145.595 471.657 145.595H499C499.278 145.595 499.5 145.706 499.667 145.927C499.889 146.093 500 146.315 500 146.591V154.642C500 154.919 499.889 155.168 499.667 155.389C499.5 155.555 499.278 155.638 499 155.638H460.487C460.209 155.638 459.959 155.555 459.737 155.389C459.57 155.168 459.487 154.919 459.487 154.642V98.535C459.487 98.2583 459.57 98.037 459.737 97.871C459.959 97.6497 460.209 97.539 460.487 97.539H499C499.278 97.539 499.5 97.6497 499.667 97.871C499.889 98.037 500 98.2583 500 98.535V106.586Z" fill="#333333"/>
<path d="M271.674 231.001C267.395 231.001 263.616 230.143 260.337 228.428C257.058 226.713 254.501 224.333 252.668 221.29C250.889 218.192 250 214.623 250 210.583V191.992C250 187.952 250.889 184.383 252.668 181.285C254.501 178.186 257.058 175.807 260.337 174.147C263.616 172.432 267.395 171.574 271.674 171.574C275.897 171.574 279.621 172.404 282.844 174.064C286.123 175.724 288.651 177.992 290.43 180.87C292.264 183.692 293.181 186.846 293.181 190.332V190.913C293.181 191.189 293.07 191.438 292.847 191.66C292.681 191.826 292.458 191.909 292.18 191.909H282.427C282.149 191.909 281.899 191.826 281.677 191.66C281.51 191.438 281.427 191.189 281.427 190.913V190.664C281.427 188.118 280.538 185.988 278.759 184.273C276.981 182.502 274.619 181.617 271.674 181.617C268.673 181.617 266.255 182.557 264.421 184.439C262.643 186.265 261.754 188.672 261.754 191.66V210.915C261.754 213.903 262.726 216.338 264.671 218.219C266.617 220.045 269.09 220.958 272.091 220.958C274.98 220.958 277.287 220.211 279.009 218.717C280.732 217.168 281.594 215.038 281.594 212.326V208.591C281.594 208.315 281.455 208.176 281.177 208.176H271.84C271.563 208.176 271.312 208.093 271.09 207.927C270.923 207.706 270.84 207.457 270.84 207.18V199.544C270.84 199.268 270.923 199.046 271.09 198.88C271.312 198.659 271.563 198.548 271.84 198.548H292.18C292.458 198.548 292.681 198.659 292.847 198.88C293.07 199.046 293.181 199.268 293.181 199.544V210.5C293.181 214.706 292.292 218.358 290.513 221.456C288.735 224.555 286.206 226.934 282.927 228.594C279.704 230.199 275.953 231.001 271.674 231.001Z" fill="#333333"/>
<path d="M338.002 230.337C337.446 230.337 337.085 230.06 336.918 229.507L334.417 221.373C334.306 221.152 334.167 221.041 334.001 221.041H313.494C313.327 221.041 313.188 221.152 313.077 221.373L310.66 229.507C310.493 230.06 310.132 230.337 309.576 230.337H298.989C298.656 230.337 298.406 230.254 298.239 230.088C298.072 229.867 298.044 229.562 298.156 229.175L316.162 173.068C316.328 172.515 316.689 172.238 317.245 172.238H330.333C330.889 172.238 331.25 172.515 331.416 173.068L349.422 229.175C349.478 229.286 349.506 229.424 349.506 229.59C349.506 230.088 349.2 230.337 348.589 230.337H338.002ZM316.078 211.496C316.023 211.828 316.134 211.994 316.412 211.994H331.083C331.416 211.994 331.528 211.828 331.416 211.496L323.914 186.846C323.858 186.624 323.775 186.541 323.664 186.597C323.553 186.597 323.469 186.68 323.414 186.846L316.078 211.496Z" fill="#333333"/>
<path d="M375.799 231.25C371.464 231.25 367.629 230.365 364.295 228.594C361.016 226.823 358.46 224.361 356.626 221.207C354.792 217.998 353.875 214.318 353.875 210.168V192.407C353.875 188.312 354.792 184.688 356.626 181.534C358.46 178.38 361.016 175.945 364.295 174.23C367.629 172.459 371.464 171.574 375.799 171.574C380.189 171.574 384.024 172.459 387.303 174.23C390.637 175.945 393.221 178.38 395.055 181.534C396.889 184.688 397.806 188.312 397.806 192.407V210.168C397.806 214.318 396.889 217.998 395.055 221.207C393.221 224.416 390.637 226.906 387.303 228.677C384.024 230.392 380.189 231.25 375.799 231.25ZM375.799 221.207C378.855 221.207 381.328 220.239 383.218 218.302C385.107 216.366 386.052 213.793 386.052 210.583V192.324C386.052 189.114 385.107 186.541 383.218 184.605C381.384 182.613 378.911 181.617 375.799 181.617C372.742 181.617 370.269 182.613 368.38 184.605C366.546 186.541 365.629 189.114 365.629 192.324V210.583C365.629 213.793 366.546 216.366 368.38 218.302C370.269 220.239 372.742 221.207 375.799 221.207Z" fill="#333333"/>
</svg>
